<svg width="140" height="140" viewBox="0 0 140 140" xmlns="http://www.w3.org/2000/svg">
  <circle cx="70" cy="70" r="70" fill="rgb(58, 24, 77)"/>
  <g transform="translate(20, 20)" fill="#FFFFFF">
    <path d="M95.7,52.3c4.9-5.8-3.8-19.5-18-32.5C63.6,6.7,49.4-0.9,43.9,4.4L4.4,47.1c-4,4.9,3.8,19.5,18,32.6
      c14.2,13.1,29.3,19.8,33.9,15.4L95.7,52.3z M24.2,77.9C11.2,65.8,4,52.3,7.8,47.8L44.6,7.9c5.1-5,18.3,2.1,31.4,14.2
      c12.1,11.2,21,25.2,15.8,29c-7.6,5.6-30.6-12-42.4-34.3c-0.2-0.3-0.6-0.2-0.6,0.2c1,6.1,17.4,33.2,39,38.3c0.6,0.1,0.8,0.8,0.4,1.3
      L55.6,92C51.3,96.1,37.3,89.9,24.2,77.9z"/>
    <circle cx="34.9" cy="28.4" r="0.9"/>
    <circle cx="49.5" cy="90.4" r="0.9"/>
    <circle cx="89.7" cy="45" r="0.9"/>
    <circle cx="89.9" cy="48.7" r="0.9"/>
    <circle cx="42.1" cy="28.5" r="1.3"/>
    <circle cx="53.8" cy="89.6" r="1.3"/>
    <circle cx="40.2" cy="20.8" r="1.1"/>
  </g>
</svg>
