<svg width="461.7600219726562" height="124.84039984973442" viewBox="0 0 370 100.0323669144684" xmlns="http://www.w3.org/2000/svg">
  <g transform="matrix(1.0670010596582638,0,0,1.0670010596582638,-3.579892876584288,-2.876916829973326)" fill="#FFFFFF">
    <path d="M95.7,52.3c4.9-5.8-3.8-19.5-18-32.5C63.6,6.7,49.4-0.9,43.9,4.4L4.4,47.1c-4,4.9,3.8,19.5,18,32.6
      c14.2,13.1,29.3,19.8,33.9,15.4L95.7,52.3z M24.2,77.9C11.2,65.8,4,52.3,7.8,47.8L44.6,7.9c5.1-5,18.3,2.1,31.4,14.2
      c12.1,11.2,21,25.2,15.8,29c-7.6,5.6-30.6-12-42.4-34.3c-0.2-0.3-0.6-0.2-0.6,0.2c1,6.1,17.4,33.2,39,38.3c0.6,0.1,0.8,0.8,0.4,1.3
      L55.6,92C51.3,96.1,37.3,89.9,24.2,77.9z"/>
    <circle cx="34.9" cy="28.4" r="0.9"/>
    <circle cx="49.5" cy="90.4" r="0.9"/>
    <circle cx="89.7" cy="45" r="0.9"/>
    <circle cx="89.9" cy="48.7" r="0.9"/>
    <circle cx="42.1" cy="28.5" r="1.3"/>
    <circle cx="53.8" cy="89.6" r="1.3"/>
    <circle cx="40.2" cy="20.8" r="1.1"/>
  </g>
  <g transform="matrix(4.191123842286454,0,0,4.191123842286454,114.13242921882762,-4.043489400938395)" fill="#FFFFFF">
    <path d="M12.8 6.76 l0 12.8 c0 0.6 -2.26 0.6 -2.26 0 l0 -6.64 c-2.32 6.46 -2.36 6.54 -2.4 6.62 c-0.26 0.6 -1.78 0.6 -2.04 0 c-0.04 -0.08 -0.08 -0.16 -2.42 -6.7 l0 6.72 c0 0.6 -2.28 0.6 -2.28 0 l0 -12.76 l0 -0.04 c0 -0.98 2.02 -0.94 2.22 -0.4 l3.5 9.2 l3.44 -9.2 c0.2 -0.54 2.24 -0.6 2.24 0.4 z M20.700000000000003 6.42 l2.08 12.7 c0.16 1 -2.1 1.1 -2.22 0.38 l-0.4 -2.4 l-2.34 0 l-0.4 2.4 c-0.1 0.6 -2.38 0.62 -2.22 -0.38 l2.1 -12.7 c0.1 -0.6 3.32 -0.54 3.4 0 z M19.78 14.84 l-0.78 -4.78 l-0.8 4.78 l1.58 0 z M27.46 17.740000000000002 l2.88 0 c0.4 0 0.4 2.26 0 2.26 l-4.02 0 c-1.14 0 -1.14 0 -1.14 -1.1 l0 -12.44 c0 -0.4 2.28 -0.4 2.28 0 l0 11.28 z M35.32 17.740000000000002 l2.88 0 c0.4 0 0.4 2.26 0 2.26 l-4.02 0 c-1.14 0 -1.14 0 -1.14 -1.1 l0 -12.44 c0 -0.4 2.28 -0.4 2.28 0 l0 11.28 z M47.44 8.82 c0.06 0.22 0.02 8.34 -0.06 8.64 c-0.36 1.54 -1.44 2.54 -3.14 2.54 l-0.52 0 c-1.68 0 -2.76 -1 -3.14 -2.54 c-0.08 -0.3 -0.1 -8.42 -0.06 -8.64 c0.28 -1.68 1.32 -2.78 3.2 -2.82 l0.52 0 c1.9 0.04 2.92 1.14 3.2 2.82 z M43.42 17.6 c0.34 0.18 0.78 0.18 1.12 0 c0.58 -0.28 0.68 -0.98 0.7 -1.46 l0 -6.26 c0 -0.48 -0.12 -1.18 -0.7 -1.46 c-0.34 -0.18 -0.78 -0.18 -1.12 0 c-0.58 0.28 -0.7 0.98 -0.7 1.46 l0 6.26 c0.02 0.48 0.12 1.18 0.7 1.46 z M57.66 12.98 l1.12 -6.56 c0.1 -0.62 2.44 -0.6 2.26 0.4 l-2.16 12.52 c-0.2 1 -2.14 0.7 -2.26 0.1 l-1.36 -6.96 l-1.38 6.96 c-0.1 0.6 -2.08 0.9 -2.26 -0.1 l-2.16 -12.52 c-0.18 -1 2.16 -1.02 2.26 -0.4 l1.12 6.56 l1.26 -6.54 c0.2 -0.6 2.1 -0.6 2.3 0 z"/>
  </g>
</svg>
